<?xml version="1.0" encoding="UTF-8" standalone="no"?>
<!DOCTYPE svg PUBLIC "-//W3C//DTD SVG 1.1//EN"
 "http://www.w3.org/Graphics/SVG/1.1/DTD/svg11.dtd">
<!-- Generated by graphviz version 2.40.1 (20161225.0304)
 -->
<!-- Title: %3 Pages: 1 -->
<svg width="374pt" height="397pt"
 viewBox="0.00 0.00 374.49 397.00" xmlns="http://www.w3.org/2000/svg" xmlns:xlink="http://www.w3.org/1999/xlink">
<g id="graph0" class="graph" transform="scale(1 1) rotate(0) translate(4 393)">
<title>%3</title>
<polygon fill="#ffffff" stroke="transparent" points="-4,4 -4,-393 370.4918,-393 370.4918,4 -4,4"/>
<!-- 129 -->
<g id="node1" class="node">
<title>129</title>
<ellipse fill="none" stroke="#000000" cx="169.7459" cy="-371" rx="32.4324" ry="18"/>
<text text-anchor="start" x="152.2459" y="-366.8" font-family="Times,serif" font-size="14.00" fill="#000000">IF E1 </text>
</g>
<!-- 124 -->
<g id="node2" class="node">
<title>124</title>
<ellipse fill="none" stroke="#000000" cx="121.7459" cy="-199" rx="32.4324" ry="18"/>
<text text-anchor="start" x="104.2459" y="-194.8" font-family="Times,serif" font-size="14.00" fill="#000000">IF E2 </text>
</g>
<!-- 129&#45;&gt;124 -->
<g id="edge1" class="edge">
<title>129&#45;&gt;124</title>
<path fill="none" stroke="#000000" d="M164.6998,-352.9181C156.2873,-322.7735 139.3448,-262.0627 129.4376,-226.5621"/>
<polygon fill="#000000" stroke="#000000" points="132.7836,-225.5308 126.7244,-216.8397 126.0413,-227.4124 132.7836,-225.5308"/>
<text text-anchor="middle" x="161.6287" y="-280.8" font-family="Times,serif" font-size="14.00" fill="#000000">true</text>
</g>
<!-- 128 -->
<g id="node5" class="node">
<title>128</title>
<ellipse fill="none" stroke="#000000" cx="232.7459" cy="-285" rx="32.4324" ry="18"/>
<text text-anchor="start" x="215.2459" y="-280.8" font-family="Times,serif" font-size="14.00" fill="#000000">IF E3 </text>
</g>
<!-- 129&#45;&gt;128 -->
<g id="edge2" class="edge">
<title>129&#45;&gt;128</title>
<path fill="none" stroke="#000000" d="M182.1927,-354.0092C191.3985,-341.4425 204.082,-324.1284 214.4414,-309.9871"/>
<polygon fill="#000000" stroke="#000000" points="217.4532,-311.7983 220.5393,-301.6629 211.8063,-307.6616 217.4532,-311.7983"/>
<text text-anchor="middle" x="217.9598" y="-323.8" font-family="Times,serif" font-size="14.00" fill="#000000">false</text>
</g>
<!-- 122 -->
<g id="node3" class="node">
<title>122</title>
<ellipse fill="none" stroke="#000000" cx="34.7459" cy="-91" rx="34.9935" ry="18"/>
<text text-anchor="start" x="15.243" y="-86.8" font-family="Times,serif" font-size="14.00" fill="#000000">(= S1) </text>
</g>
<!-- 124&#45;&gt;122 -->
<g id="edge3" class="edge">
<title>124&#45;&gt;122</title>
<path fill="none" stroke="#000000" d="M108.1521,-182.125C93.787,-164.2924 70.9883,-135.9906 54.6096,-115.6584"/>
<polygon fill="#000000" stroke="#000000" points="57.2432,-113.3484 48.2442,-107.7565 51.7919,-117.7397 57.2432,-113.3484"/>
<text text-anchor="middle" x="102.6287" y="-140.8" font-family="Times,serif" font-size="14.00" fill="#000000">true</text>
</g>
<!-- 123 -->
<g id="node4" class="node">
<title>123</title>
<ellipse fill="none" stroke="#000000" cx="121.7459" cy="-91" rx="34.9935" ry="18"/>
<text text-anchor="start" x="102.243" y="-86.8" font-family="Times,serif" font-size="14.00" fill="#000000">(= S2) </text>
</g>
<!-- 124&#45;&gt;123 -->
<g id="edge4" class="edge">
<title>124&#45;&gt;123</title>
<path fill="none" stroke="#000000" d="M121.7459,-180.6793C121.7459,-163.821 121.7459,-138.5651 121.7459,-119.147"/>
<polygon fill="#000000" stroke="#000000" points="125.246,-119.0501 121.7459,-109.0502 118.246,-119.0502 125.246,-119.0501"/>
<text text-anchor="middle" x="134.9598" y="-140.8" font-family="Times,serif" font-size="14.00" fill="#000000">false</text>
</g>
<!-- 121 -->
<g id="node9" class="node">
<title>121</title>
<ellipse fill="none" stroke="#000000" cx="208.7459" cy="-18" rx="34.9935" ry="18"/>
<text text-anchor="start" x="189.243" y="-13.8" font-family="Times,serif" font-size="14.00" fill="#000000">(= S5) </text>
</g>
<!-- 122&#45;&gt;121 -->
<g id="edge5" class="edge">
<title>122&#45;&gt;121</title>
<path fill="none" stroke="#000000" d="M61.9334,-79.5938C91.5982,-67.1482 139.2453,-47.1583 172.1733,-33.3437"/>
<polygon fill="#000000" stroke="#000000" points="173.5955,-36.5426 181.4627,-29.4464 170.8873,-30.0877 173.5955,-36.5426"/>
</g>
<!-- 123&#45;&gt;121 -->
<g id="edge6" class="edge">
<title>123&#45;&gt;121</title>
<path fill="none" stroke="#000000" d="M140.1964,-75.5186C152.5383,-65.1627 168.9613,-51.3825 182.6382,-39.9065"/>
<polygon fill="#000000" stroke="#000000" points="184.9112,-42.5681 190.322,-33.4591 180.4117,-37.2057 184.9112,-42.5681"/>
</g>
<!-- 126 -->
<g id="node6" class="node">
<title>126</title>
<ellipse fill="none" stroke="#000000" cx="232.7459" cy="-199" rx="32.4324" ry="18"/>
<text text-anchor="start" x="215.2459" y="-194.8" font-family="Times,serif" font-size="14.00" fill="#000000">IF E4 </text>
</g>
<!-- 128&#45;&gt;126 -->
<g id="edge7" class="edge">
<title>128&#45;&gt;126</title>
<path fill="none" stroke="#000000" d="M232.7459,-266.7616C232.7459,-255.3597 232.7459,-240.4342 232.7459,-227.494"/>
<polygon fill="#000000" stroke="#000000" points="236.246,-227.2121 232.7459,-217.2121 229.246,-227.2121 236.246,-227.2121"/>
<text text-anchor="middle" x="243.6287" y="-237.8" font-family="Times,serif" font-size="14.00" fill="#000000">true</text>
</g>
<!-- 127 -->
<g id="node8" class="node">
<title>127</title>
<ellipse fill="none" stroke="#000000" cx="331.7459" cy="-145" rx="34.9935" ry="18"/>
<text text-anchor="start" x="312.243" y="-140.8" font-family="Times,serif" font-size="14.00" fill="#000000">(= S4) </text>
</g>
<!-- 128&#45;&gt;127 -->
<g id="edge8" class="edge">
<title>128&#45;&gt;127</title>
<path fill="none" stroke="#000000" d="M244.9619,-268.1843C249.3287,-262.1472 254.2742,-255.2803 258.7459,-249 277.7783,-222.2699 299.3396,-191.4902 314.0651,-170.3916"/>
<polygon fill="#000000" stroke="#000000" points="317.0804,-172.1866 319.9302,-161.9822 311.3389,-168.1822 317.0804,-172.1866"/>
<text text-anchor="middle" x="279.9598" y="-237.8" font-family="Times,serif" font-size="14.00" fill="#000000">false</text>
</g>
<!-- 125 -->
<g id="node7" class="node">
<title>125</title>
<ellipse fill="none" stroke="#000000" cx="208.7459" cy="-91" rx="34.9935" ry="18"/>
<text text-anchor="start" x="189.243" y="-86.8" font-family="Times,serif" font-size="14.00" fill="#000000">(= S3) </text>
</g>
<!-- 126&#45;&gt;125 -->
<g id="edge9" class="edge">
<title>126&#45;&gt;125</title>
<path fill="none" stroke="#000000" d="M228.6746,-180.6793C224.911,-163.7429 219.2639,-138.3311 214.9409,-118.8777"/>
<polygon fill="#000000" stroke="#000000" points="218.3431,-118.0528 212.757,-109.0502 211.5098,-119.5713 218.3431,-118.0528"/>
<text text-anchor="middle" x="234.6287" y="-140.8" font-family="Times,serif" font-size="14.00" fill="#000000">true</text>
</g>
<!-- 126&#45;&gt;121 -->
<g id="edge10" class="edge">
<title>126&#45;&gt;121</title>
<path fill="none" stroke="#000000" d="M242.6345,-181.5627C245.4327,-175.8244 248.1489,-169.2978 249.7459,-163 259.5831,-124.2056 265.9935,-110.7661 252.7459,-73 248.6761,-61.398 241.0158,-50.4253 233.2131,-41.3772"/>
<polygon fill="#000000" stroke="#000000" points="235.7444,-38.959 226.4062,-33.954 230.585,-43.6899 235.7444,-38.959"/>
<text text-anchor="middle" x="272.9598" y="-86.8" font-family="Times,serif" font-size="14.00" fill="#000000">false</text>
</g>
<!-- 125&#45;&gt;121 -->
<g id="edge11" class="edge">
<title>125&#45;&gt;121</title>
<path fill="none" stroke="#000000" d="M208.7459,-72.9551C208.7459,-64.8828 208.7459,-55.1764 208.7459,-46.1817"/>
<polygon fill="#000000" stroke="#000000" points="212.246,-46.0903 208.7459,-36.0904 205.246,-46.0904 212.246,-46.0903"/>
</g>
<!-- 127&#45;&gt;121 -->
<g id="edge12" class="edge">
<title>127&#45;&gt;121</title>
<path fill="none" stroke="#000000" d="M329.6905,-126.942C326.2375,-105.7407 317.1645,-71.2825 293.7459,-54 280.3122,-44.0862 263.7354,-36.2793 248.7984,-30.5064"/>
<polygon fill="#000000" stroke="#000000" points="249.8626,-27.1686 239.269,-27.0047 247.4482,-33.7391 249.8626,-27.1686"/>
</g>
</g>
</svg>
