<?xml version="1.0" encoding="UTF-8" standalone="no"?>
<!DOCTYPE svg PUBLIC "-//W3C//DTD SVG 1.1//EN"
 "http://www.w3.org/Graphics/SVG/1.1/DTD/svg11.dtd">
<!-- Generated by graphviz version 2.40.1 (20161225.0304)
 -->
<!-- Title: %3 Pages: 1 -->
<svg width="227pt" height="311pt"
 viewBox="0.00 0.00 227.49 311.00" xmlns="http://www.w3.org/2000/svg" xmlns:xlink="http://www.w3.org/1999/xlink">
<g id="graph0" class="graph" transform="scale(1 1) rotate(0) translate(4 307)">
<title>%3</title>
<polygon fill="#ffffff" stroke="transparent" points="-4,4 -4,-307 223.4918,-307 223.4918,4 -4,4"/>
<!-- 120 -->
<g id="node1" class="node">
<title>120</title>
<ellipse fill="none" stroke="#000000" cx="151.7459" cy="-285" rx="32.4324" ry="18"/>
<text text-anchor="start" x="134.2459" y="-280.8" font-family="Times,serif" font-size="14.00" fill="#000000">IF E1 </text>
</g>
<!-- 118 -->
<g id="node2" class="node">
<title>118</title>
<ellipse fill="none" stroke="#000000" cx="118.7459" cy="-199" rx="32.4324" ry="18"/>
<text text-anchor="start" x="101.2459" y="-194.8" font-family="Times,serif" font-size="14.00" fill="#000000">IF E2 </text>
</g>
<!-- 120&#45;&gt;118 -->
<g id="edge1" class="edge">
<title>120&#45;&gt;118</title>
<path fill="none" stroke="#000000" d="M144.9083,-267.1807C140.3951,-255.4191 134.3927,-239.7766 129.2758,-226.4416"/>
<polygon fill="#000000" stroke="#000000" points="132.425,-224.8788 125.5748,-216.7964 125.8896,-227.3866 132.425,-224.8788"/>
<text text-anchor="middle" x="148.6287" y="-237.8" font-family="Times,serif" font-size="14.00" fill="#000000">true</text>
</g>
<!-- 119 -->
<g id="node5" class="node">
<title>119</title>
<ellipse fill="none" stroke="#000000" cx="184.7459" cy="-145" rx="34.9935" ry="18"/>
<text text-anchor="start" x="165.243" y="-140.8" font-family="Times,serif" font-size="14.00" fill="#000000">(= S3) </text>
</g>
<!-- 120&#45;&gt;119 -->
<g id="edge2" class="edge">
<title>120&#45;&gt;119</title>
<path fill="none" stroke="#000000" d="M155.9925,-266.9841C161.6111,-243.1475 171.5725,-200.8869 178.1685,-172.9042"/>
<polygon fill="#000000" stroke="#000000" points="181.6279,-173.4831 180.5156,-162.9468 174.8146,-171.877 181.6279,-173.4831"/>
<text text-anchor="middle" x="176.9598" y="-237.8" font-family="Times,serif" font-size="14.00" fill="#000000">false</text>
</g>
<!-- 116 -->
<g id="node3" class="node">
<title>116</title>
<ellipse fill="none" stroke="#000000" cx="34.7459" cy="-91" rx="34.9935" ry="18"/>
<text text-anchor="start" x="15.243" y="-86.8" font-family="Times,serif" font-size="14.00" fill="#000000">(= S1) </text>
</g>
<!-- 118&#45;&gt;116 -->
<g id="edge3" class="edge">
<title>118&#45;&gt;116</title>
<path fill="none" stroke="#000000" d="M104.4076,-182.7161C99.1447,-176.6112 93.2003,-169.563 87.9803,-163 75.8797,-147.7861 62.8989,-130.2561 52.785,-116.3027"/>
<polygon fill="#000000" stroke="#000000" points="55.5794,-114.1937 46.8916,-108.1295 49.9015,-118.2879 55.5794,-114.1937"/>
<text text-anchor="middle" x="99.6287" y="-140.8" font-family="Times,serif" font-size="14.00" fill="#000000">true</text>
</g>
<!-- 117 -->
<g id="node4" class="node">
<title>117</title>
<ellipse fill="none" stroke="#000000" cx="121.7459" cy="-91" rx="34.9935" ry="18"/>
<text text-anchor="start" x="102.243" y="-86.8" font-family="Times,serif" font-size="14.00" fill="#000000">(= S2) </text>
</g>
<!-- 118&#45;&gt;117 -->
<g id="edge4" class="edge">
<title>118&#45;&gt;117</title>
<path fill="none" stroke="#000000" d="M116.0045,-180.9175C114.1859,-166.3363 112.4485,-145.3145 114.3182,-127 114.579,-124.4447 114.9415,-121.8029 115.3671,-119.1652"/>
<polygon fill="#000000" stroke="#000000" points="118.8321,-119.677 117.2407,-109.2024 111.9527,-118.3832 118.8321,-119.677"/>
<text text-anchor="middle" x="127.9598" y="-140.8" font-family="Times,serif" font-size="14.00" fill="#000000">false</text>
</g>
<!-- 115 -->
<g id="node6" class="node">
<title>115</title>
<ellipse fill="none" stroke="#000000" cx="121.7459" cy="-18" rx="34.9935" ry="18"/>
<text text-anchor="start" x="102.243" y="-13.8" font-family="Times,serif" font-size="14.00" fill="#000000">(= S4) </text>
</g>
<!-- 116&#45;&gt;115 -->
<g id="edge5" class="edge">
<title>116&#45;&gt;115</title>
<path fill="none" stroke="#000000" d="M53.1964,-75.5186C65.5383,-65.1627 81.9613,-51.3825 95.6382,-39.9065"/>
<polygon fill="#000000" stroke="#000000" points="97.9112,-42.5681 103.322,-33.4591 93.4117,-37.2057 97.9112,-42.5681"/>
</g>
<!-- 117&#45;&gt;115 -->
<g id="edge6" class="edge">
<title>117&#45;&gt;115</title>
<path fill="none" stroke="#000000" d="M121.7459,-72.9551C121.7459,-64.8828 121.7459,-55.1764 121.7459,-46.1817"/>
<polygon fill="#000000" stroke="#000000" points="125.246,-46.0903 121.7459,-36.0904 118.246,-46.0904 125.246,-46.0903"/>
</g>
<!-- 119&#45;&gt;115 -->
<g id="edge7" class="edge">
<title>119&#45;&gt;115</title>
<path fill="none" stroke="#000000" d="M182.1022,-126.7971C179.4228,-111.7734 174.4073,-90.2054 165.7459,-73 160.1324,-61.849 151.9983,-50.8447 144.2468,-41.6436"/>
<polygon fill="#000000" stroke="#000000" points="146.8286,-39.2792 137.6064,-34.0636 141.5633,-43.8918 146.8286,-39.2792"/>
</g>
</g>
</svg>
