<?xml version="1.0" encoding="UTF-8" standalone="no"?>
<!DOCTYPE svg PUBLIC "-//W3C//DTD SVG 1.1//EN"
 "http://www.w3.org/Graphics/SVG/1.1/DTD/svg11.dtd">
<!-- Generated by graphviz version 2.40.1 (20161225.0304)
 -->
<!-- Title: %3 Pages: 1 -->
<svg width="232pt" height="476pt"
 viewBox="0.00 0.00 232.41 476.00" xmlns="http://www.w3.org/2000/svg" xmlns:xlink="http://www.w3.org/1999/xlink">
<g id="graph0" class="graph" transform="scale(1 1) rotate(0) translate(4 472)">
<title>%3</title>
<polygon fill="#ffffff" stroke="transparent" points="-4,4 -4,-472 228.4101,-472 228.4101,4 -4,4"/>
<!-- 132 -->
<g id="node1" class="node">
<title>132</title>
<ellipse fill="none" stroke="#000000" cx="129.6329" cy="-450" rx="59.4254" ry="18"/>
<text text-anchor="start" x="90.5655" y="-445.8" font-family="Times,serif" font-size="14.00" fill="#000000">(= X (+ Y 1)) </text>
</g>
<!-- 131 -->
<g id="node2" class="node">
<title>131</title>
<ellipse fill="none" stroke="#000000" cx="129.6329" cy="-378" rx="59.252" ry="18"/>
<text text-anchor="start" x="90.8321" y="-373.8" font-family="Times,serif" font-size="14.00" fill="#000000">(= Z (+ X 4)) </text>
</g>
<!-- 132&#45;&gt;131 -->
<g id="edge1" class="edge">
<title>132&#45;&gt;131</title>
<path fill="none" stroke="#000000" d="M129.6329,-431.8314C129.6329,-424.131 129.6329,-414.9743 129.6329,-406.4166"/>
<polygon fill="#000000" stroke="#000000" points="133.133,-406.4132 129.6329,-396.4133 126.133,-406.4133 133.133,-406.4132"/>
</g>
<!-- 130 -->
<g id="node3" class="node">
<title>130</title>
<ellipse fill="none" stroke="#000000" cx="129.6329" cy="-306" rx="32.4324" ry="18"/>
<text text-anchor="start" x="112.1329" y="-301.8" font-family="Times,serif" font-size="14.00" fill="#000000">IF E1 </text>
</g>
<!-- 131&#45;&gt;130 -->
<g id="edge2" class="edge">
<title>131&#45;&gt;130</title>
<path fill="none" stroke="#000000" d="M129.6329,-359.8314C129.6329,-352.131 129.6329,-342.9743 129.6329,-334.4166"/>
<polygon fill="#000000" stroke="#000000" points="133.133,-334.4132 129.6329,-324.4133 126.133,-334.4133 133.133,-334.4132"/>
</g>
<!-- 128 -->
<g id="node4" class="node">
<title>128</title>
<ellipse fill="none" stroke="#000000" cx="73.6329" cy="-234" rx="57.6515" ry="18"/>
<text text-anchor="start" x="36.0592" y="-229.8" font-family="Times,serif" font-size="14.00" fill="#000000">(= Z (* Z 4)) </text>
</g>
<!-- 130&#45;&gt;128 -->
<g id="edge3" class="edge">
<title>130&#45;&gt;128</title>
<path fill="none" stroke="#000000" d="M116.6446,-289.3008C109.7786,-280.4731 101.2029,-269.4471 93.5193,-259.5682"/>
<polygon fill="#000000" stroke="#000000" points="96.2342,-257.3579 87.332,-251.6132 90.7087,-261.6555 96.2342,-257.3579"/>
</g>
<!-- 129 -->
<g id="node5" class="node">
<title>129</title>
<ellipse fill="none" stroke="#000000" cx="186.6329" cy="-234" rx="37.5557" ry="18"/>
<text text-anchor="start" x="164.7306" y="-229.8" font-family="Times,serif" font-size="14.00" fill="#000000">(= Y 1) </text>
</g>
<!-- 130&#45;&gt;129 -->
<g id="edge4" class="edge">
<title>130&#45;&gt;129</title>
<path fill="none" stroke="#000000" d="M142.8531,-289.3008C149.9445,-280.3433 158.8277,-269.1223 166.7358,-259.1331"/>
<polygon fill="#000000" stroke="#000000" points="169.6257,-261.1216 173.0886,-251.1086 164.1373,-256.7766 169.6257,-261.1216"/>
</g>
<!-- 127 -->
<g id="node6" class="node">
<title>127</title>
<ellipse fill="none" stroke="#000000" cx="129.6329" cy="-162" rx="32.4324" ry="18"/>
<text text-anchor="start" x="112.1329" y="-157.8" font-family="Times,serif" font-size="14.00" fill="#000000">IF E2 </text>
</g>
<!-- 128&#45;&gt;127 -->
<g id="edge5" class="edge">
<title>128&#45;&gt;127</title>
<path fill="none" stroke="#000000" d="M87.4756,-216.2022C94.3897,-207.3127 102.8666,-196.4138 110.4013,-186.7263"/>
<polygon fill="#000000" stroke="#000000" points="113.3405,-188.6482 116.7173,-178.6058 107.8151,-184.3506 113.3405,-188.6482"/>
</g>
<!-- 129&#45;&gt;127 -->
<g id="edge6" class="edge">
<title>129&#45;&gt;127</title>
<path fill="none" stroke="#000000" d="M173.1247,-216.937C166.0261,-207.9703 157.1927,-196.8124 149.3449,-186.8993"/>
<polygon fill="#000000" stroke="#000000" points="151.9954,-184.6085 143.0441,-178.9405 146.507,-188.9535 151.9954,-184.6085"/>
</g>
<!-- 125 -->
<g id="node7" class="node">
<title>125</title>
<ellipse fill="none" stroke="#000000" cx="82.6329" cy="-90" rx="32.4324" ry="18"/>
<text text-anchor="start" x="65.1329" y="-85.8" font-family="Times,serif" font-size="14.00" fill="#000000">IF E3 </text>
</g>
<!-- 127&#45;&gt;125 -->
<g id="edge7" class="edge">
<title>127&#45;&gt;125</title>
<path fill="none" stroke="#000000" d="M118.4946,-144.937C112.7584,-136.1496 105.6485,-125.2579 99.2758,-115.4956"/>
<polygon fill="#000000" stroke="#000000" points="102.0884,-113.4011 93.6913,-106.9405 96.2267,-117.2275 102.0884,-113.4011"/>
</g>
<!-- 126 -->
<g id="node10" class="node">
<title>126</title>
<ellipse fill="none" stroke="#000000" cx="176.6329" cy="-90" rx="44.0078" ry="18"/>
<text text-anchor="start" x="149.8018" y="-85.8" font-family="Times,serif" font-size="14.00" fill="#000000">(= V (1)) </text>
</g>
<!-- 127&#45;&gt;126 -->
<g id="edge8" class="edge">
<title>127&#45;&gt;126</title>
<path fill="none" stroke="#000000" d="M140.7712,-144.937C146.4243,-136.277 153.4115,-125.5731 159.7124,-115.9207"/>
<polygon fill="#000000" stroke="#000000" points="162.7126,-117.7277 165.248,-107.4407 156.8509,-113.9013 162.7126,-117.7277"/>
</g>
<!-- 123 -->
<g id="node8" class="node">
<title>123</title>
<ellipse fill="none" stroke="#000000" cx="36.6329" cy="-18" rx="36.7663" ry="18"/>
<text text-anchor="start" x="15.6363" y="-13.8" font-family="Times,serif" font-size="14.00" fill="#000000">(= P 4) </text>
</g>
<!-- 125&#45;&gt;123 -->
<g id="edge9" class="edge">
<title>125&#45;&gt;123</title>
<path fill="none" stroke="#000000" d="M71.7315,-72.937C66.1988,-64.277 59.3602,-53.5731 53.1934,-43.9207"/>
<polygon fill="#000000" stroke="#000000" points="56.1089,-41.9833 47.7756,-35.4407 50.21,-45.752 56.1089,-41.9833"/>
</g>
<!-- 124 -->
<g id="node9" class="node">
<title>124</title>
<ellipse fill="none" stroke="#000000" cx="128.6329" cy="-18" rx="37.2334" ry="18"/>
<text text-anchor="start" x="107.2535" y="-13.8" font-family="Times,serif" font-size="14.00" fill="#000000">(= L 1) </text>
</g>
<!-- 125&#45;&gt;124 -->
<g id="edge10" class="edge">
<title>125&#45;&gt;124</title>
<path fill="none" stroke="#000000" d="M93.5343,-72.937C99.067,-64.277 105.9056,-53.5731 112.0724,-43.9207"/>
<polygon fill="#000000" stroke="#000000" points="115.0558,-45.752 117.4902,-35.4407 109.1569,-41.9833 115.0558,-45.752"/>
</g>
</g>
</svg>
